<?xml version="1.0" encoding="utf-8"?>
<!-- Generator: Adobe Illustrator 19.0.1, SVG Export Plug-In . SVG Version: 6.00 Build 0)  -->
<svg version="1.1" id="Layer_1" xmlns="http://www.w3.org/2000/svg" xmlns:xlink="http://www.w3.org/1999/xlink" x="0px" y="0px"
	 viewBox="0 0 474.7 336.9" style="enable-background:new 0 0 474.7 336.9;" xml:space="preserve">
<style type="text/css">
	.st0{fill:#E65D25;}
	.st1{fill:#EC7830;}
	.st2{fill:#EF8B4C;}
	.st3{fill:#F19A20;}
	.st4{fill:#3D3D3C;}
	.st5{fill:none;}
	.st6{fill:#E5F4F4;}
	.st7{fill:#FFFFFF;}
</style>
<path class="st0" d="M474,269.1l0.6-69.3c1.7-29.8-32.6-70-80.3-68.9v71.3C441.7,210.1,474,237.7,474,269.1z"/>
<path class="st1" d="M168,298.9c0,27.7-133.7-32.8-168,38c0,0-1.1-44.6,32-74.3c-8-6.8-32-26.3-32-43.4c92.5,26.3,168-43.4,168,0.9
	V298.9z"/>
<path class="st0" d="M168,298.9C168,275.5,61,336,61,304.7l0.3-76.3c0,21.7,55.5-37.4,106.6-15.5V298.9z"/>
<path class="st2" d="M61.2,234c0.5-169.1,413.8,76.6,413.4-37.2l0,63.5C475,401,61.4,162.7,61,305.1L61.2,234z"/>
<polygon class="st0" points="401,134.5 398.9,130.9 342.4,163.6 342.4,168.4 398.9,201.1 401,197.5 346.5,166 "/>
<g>
	<path class="st3" d="M322,100.9c-20.6,4.4-38.4,29-38.4,29l-52.1-28.4c0,0-8.5,2.2-26.2-4.2c-17.7-6.4-17.8-16.4-17.8-16.4L97.7,39
		L73.1,91.7l89.7,41.8c0,0,39.8,16.8,67.4,24.4c27.6,7.6,82.9,16.1,82.9,16.1l34.2-73.4C347.4,100.6,342.6,96.5,322,100.9z"/>
	<path class="st4" d="M95.1,35.4l-18.8-8.8c-4-1.9-8.7-0.1-10.6,3.8L46.1,72.7c-1.9,4-0.1,8.7,3.8,10.6L68.7,92L95.1,35.4z"/>
	<path class="st4" d="M57.4,40.5c-10.3-4.8-20.6-4.3-23.1,1c-2.5,5.4,3.8,13.6,14.1,18.4L57.4,40.5z"/>
	<g>
		
			<ellipse transform="matrix(0.9063 0.4227 -0.4227 0.9063 13.4579 -23.9832)" class="st4" cx="60.8" cy="18.4" rx="3.1" ry="20.3"/>
		<ellipse transform="matrix(0.9063 0.4227 -0.4227 0.9063 35.5616 -7.0197)" class="st4" cx="33.6" cy="76.7" rx="3.1" ry="20.3"/>
	</g>
	<g>
		<path class="st5" d="M163.3,44.7c-9.4-4.4-19.9-9.3-27.8-13l-11.3,60.7c9.2,4.8,19.3,10.7,27.3,15.8L163.3,44.7z"/>
		<path class="st4" d="M162.4,115.7c-1.5-1.1-3.4-2.5-5.6-4l12-64.5c5.1,2.4,9.5,4.4,12.4,5.7c13.1,5.9,12,3.5,2-4.3
			c-10-7.8-40.4-26.2-55.3-31c-14.9-4.8-13.4,4.2-4,8.6c0,0,2.4,1.1,6.1,2.9l-11.3,60.5c-4.4-2.1-8.4-3.8-11.7-4.9
			c-14.9-4.8-13.4,4.2-4,8.6c0,0,44.2,20.8,57.3,26.7C173.5,125.9,172.3,123.5,162.4,115.7z M124.2,92.4l11.3-60.7
			c7.8,3.7,18.4,8.6,27.8,13l-11.8,63.5C143.6,103.1,133.5,97.2,124.2,92.4z"/>
	</g>
	<circle class="st4" cx="79.5" cy="140.5" r="20.7"/>
	<path class="st6" d="M92.9,146.7c-3.4,7.4-12.2,10.5-19.5,7.1c-7.4-3.4-10.5-12.2-7.1-19.5c3.4-7.4,12.2-10.5,19.5-7.1
		C93.1,130.6,96.3,139.3,92.9,146.7z"/>
	<circle class="st4" cx="79.5" cy="140.5" r="4.1"/>
	<path class="st4" d="M349.8,101.7l-33.9,72.6c0,0,24.2,7.1,34.1-5.8c9.8-13,16.8-34.6,12.2-48C357.5,107,349.8,101.7,349.8,101.7z"
		/>
	<path class="st6" d="M187.4,80.8l2.7-12.1c0,0-9.8-1.3-18.8,4.6L187.4,80.8z"/>
	<circle class="st4" cx="305.3" cy="185.4" r="8"/>
	<path class="st6" d="M310.2,187.7c-1.3,2.7-4.5,3.9-7.2,2.6c-2.7-1.3-3.9-4.5-2.6-7.2c1.3-2.7,4.5-3.9,7.2-2.6
		C310.3,181.7,311.5,185,310.2,187.7z"/>
	<circle class="st4" cx="305.3" cy="185.4" r="2.2"/>
	<path class="st3" d="M105.3,128.8l26.6-9.7l-4.5-2.1l-23.8,8.7c-2.2-3.6-5.3-6.8-9.1-9.2l5.7-12.2l-6.4-3l-5.7,12.2
		c-3.9-1.3-8-1.6-11.9-1.2l1.8,5c2.6-0.2,5.3,0.1,7.9,0.9l-1.1,2.3c1.1,0.3,2.2,0.7,3.3,1.2c1.1,0.5,2.1,1.1,3.1,1.8l1.1-2.4
		c2.6,1.7,4.7,3.9,6.3,6.3l-2.5,0.9c0.7,1,1.3,2,1.8,3.1l2.4-0.9c2.8,6,3.1,13.2,0.1,19.7c-1.7,3.6-4.2,6.6-7.2,8.8l1.8,5
		c4.2-2.8,7.7-6.7,10-11.6C108.8,144.6,108.6,136,105.3,128.8z"/>
	<g>
		<path class="st3" d="M306.5,177.5l0.2-4.5c-0.5-0.1-1-0.2-1.5-0.2l-0.2,4.7C305.4,177.4,305.9,177.5,306.5,177.5z"/>
		<path class="st3" d="M300.1,179.4l-8.7-8.9c-0.8-0.1-1.7-0.3-2.6-0.4l10.2,10.5C299.4,180.1,299.7,179.7,300.1,179.4z"/>
	</g>
	<circle class="st4" cx="243.9" cy="134.3" r="20.4"/>
	<circle class="st6" cx="243.9" cy="134.3" r="16.2"/>
	<g>
		<path class="st4" d="M247.9,141.3c-1.5,3.2-4.9,4.2-8.6,2.5c-2.7-1.2-4.3-3.4-4.4-5.7l1.8-0.6c0,1.9,1.1,3.6,3.4,4.7
			c2.6,1.2,4.9,0.6,6-1.7c1.1-2.4,0.2-4.7-2.8-6.1l-0.7-0.3l0.7-1.5l0.7,0.3c2.7,1.3,4.9,0.6,5.8-1.4c1-2.1-0.1-4-2.3-5
			c-2-0.9-4.1-0.7-5.6,0.5l-0.6-1.7c1.7-1.4,4.6-1.6,7.1-0.4c3.3,1.5,4.7,4.5,3.3,7.3c-1,2.1-3.2,3.3-5.5,2.6
			C248.5,136.2,249.1,138.8,247.9,141.3z"/>
	</g>
</g>
<g>
	<g>
		<path class="st7" d="M94.5,222.9c-1.3,0.6-3.8,1.2-6.8,1.2c-7.1,0-11.7-4.3-10.4-12.8c1.2-8.1,7.4-13.8,15.2-13.7
			c3.1,0,5,0.8,5.8,1.2c-0.4,0.9-0.8,1.8-1.2,2.7c-1.1-0.6-2.8-1.1-4.9-1.1c-5.9,0-10.4,3.9-11.4,10.7c-1,6.3,1.9,10.3,8.1,10.2
			c2,0,4.1-0.4,5.5-1C94.3,221.2,94.4,222,94.5,222.9z"/>
		<path class="st7" d="M121.9,212c-1.4,8.7-7.3,12.9-13.8,12.6c-6.6-0.3-10.5-5.6-9.3-13.4c1.3-8.1,7-13.3,13.7-12.9
			C119.5,198.7,123.1,204.5,121.9,212z M102.4,211.2c-0.8,5.5,1.3,10.4,6.4,10.7c5.1,0.3,8.8-4.3,9.7-10.1c0.8-5-1-10.6-6.4-10.9
			C106.7,200.6,103.2,205.6,102.4,211.2z"/>
		<path class="st7" d="M128,200.2c1.6-0.1,3.7-0.1,6.3,0.2c3.2,0.4,5.4,1.4,6.7,2.9c1.2,1.4,1.7,3.3,1.4,5.6c-0.4,2.3-1.3,4-2.8,5.1
			c-2,1.6-4.9,2.2-8.1,1.9c-1-0.1-1.9-0.2-2.6-0.5c-0.5,3.4-1.1,6.8-1.6,10.2c-1.1-0.1-2.2-0.2-3.2-0.3
			C125.4,216.9,126.7,208.6,128,200.2z M129.3,212.8c0.7,0.3,1.6,0.4,2.6,0.5c3.9,0.4,6.6-1.2,7.1-4.7c0.5-3.3-1.6-5.2-5.1-5.6
			c-1.4-0.2-2.5-0.2-3.1-0.1C130.4,206.2,129.8,209.5,129.3,212.8z"/>
		<path class="st7" d="M158.8,217.6c-3.3-0.5-6.5-1-9.8-1.5c-0.5,3-1,6.1-1.4,9.1c3.6,0.5,7.3,1,10.9,1.6c-0.1,0.9-0.3,1.8-0.4,2.7
			c-4.7-0.7-9.4-1.4-14.1-2c1.3-8.4,2.7-16.8,4-25.2c4.5,0.6,9,1.3,13.6,2.1c-0.1,0.9-0.3,1.8-0.4,2.7c-3.4-0.6-6.9-1.1-10.3-1.6
			c-0.4,2.7-0.8,5.3-1.3,8c3.3,0.5,6.5,1,9.8,1.5C159,215.8,158.9,216.7,158.8,217.6z"/>
		<path class="st7" d="M162.2,230.2c1.3-8.4,2.7-16.7,4-25.1c1.2,0.2,2.4,0.4,3.5,0.6c2,4.7,4,9.4,6,14.1c1.4,3.3,2.4,6.2,3.2,9
			c0,0,0.1,0,0.1,0c0.2-3.4,0.6-6.4,1.3-10.3c0.6-3.5,1.1-7,1.7-10.4c1,0.2,2,0.4,3.1,0.6c-1.3,8.3-2.7,16.6-4,25
			c-1.1-0.2-2.2-0.4-3.3-0.6c-2-4.7-4-9.5-6-14.2c-1.3-3.1-2.5-6.3-3.4-9.2c0,0-0.1,0-0.1,0c-0.3,3.2-0.7,6.2-1.4,10.4
			c-0.6,3.6-1.1,7.1-1.7,10.7C164.3,230.6,163.2,230.4,162.2,230.2z"/>
		<path class="st7" d="M194,210.5c-0.6,3.5-1.1,6.9-1.7,10.4c4,0.8,8.1,1.7,12.1,2.6c0.6-3.5,1.1-6.9,1.7-10.4
			c1.1,0.2,2.2,0.5,3.3,0.7c-1.3,8.3-2.7,16.6-4,24.8c-1.1-0.2-2.2-0.5-3.3-0.7c0.6-3.9,1.2-7.8,1.9-11.7c-4-0.9-8.1-1.8-12.1-2.6
			c-0.6,3.9-1.2,7.8-1.9,11.7c-1.1-0.2-2.2-0.4-3.2-0.7c1.3-8.3,2.7-16.6,4-24.9C191.8,210,192.9,210.3,194,210.5z"/>
		<path class="st7" d="M216.3,233.1c-1.3,2.4-2.6,4.8-3.9,7.2c-1.1-0.3-2.2-0.5-3.4-0.8c4.2-7.6,8.3-15.2,12.5-22.8
			c1.3,0.3,2.6,0.6,3.9,0.9c1.5,8.9,3.1,17.9,4.6,26.9c-1.2-0.3-2.3-0.6-3.5-0.8c-0.5-2.8-1-5.6-1.4-8.4
			C222.3,234.5,219.3,233.8,216.3,233.1z M225,232.6c-0.4-2.6-0.9-5.2-1.3-7.7c-0.3-1.8-0.4-3.3-0.6-4.8c0,0-0.1,0-0.1,0
			c-0.6,1.4-1.3,2.8-2,4.2c-1.2,2.2-2.4,4.4-3.6,6.6C219.9,231.4,222.4,232,225,232.6z"/>
		<path class="st7" d="M253.1,249.1c-1.5,0.1-4.5,0.3-7.9-0.6c-3.8-1-6.8-2.7-8.9-5.6c-1.8-2.6-2.6-6.2-2-10.1
			c1.2-7.4,7.2-11.5,15.7-9.4c2.9,0.7,5.1,1.9,6.1,2.7c-0.4,0.8-0.8,1.6-1.2,2.4c-1.2-0.9-2.8-1.8-5.4-2.5
			c-6.1-1.5-10.7,1.2-11.7,7.4c-1,6.3,2.2,10.9,8.1,12.4c2.1,0.5,3.6,0.6,4.4,0.4c0.4-2.5,0.8-4.9,1.2-7.4c-1.7-0.4-3.4-0.9-5.1-1.3
			c0.1-0.9,0.3-1.7,0.4-2.6c2.8,0.7,5.5,1.4,8.3,2.1C254.4,241.2,253.7,245.2,253.1,249.1z"/>
		<path class="st7" d="M272.8,243.2c-3.3-0.8-6.5-1.7-9.8-2.5c-0.5,3-1,5.9-1.4,8.9c3.6,0.9,7.3,1.9,10.9,2.8
			c-0.1,0.9-0.3,1.8-0.4,2.7c-4.7-1.2-9.4-2.4-14.1-3.6c1.3-8.2,2.7-16.5,4-24.7c4.5,1.2,9,2.3,13.6,3.5c-0.1,0.9-0.3,1.8-0.4,2.7
			c-3.4-0.9-6.9-1.8-10.3-2.6c-0.4,2.6-0.8,5.2-1.3,7.8c3.3,0.8,6.5,1.7,9.8,2.5C273,241.5,272.9,242.4,272.8,243.2z"/>
		<path class="st7" d="M276.2,256.2c1.3-8.2,2.7-16.5,4-24.7c1.2,0.3,2.4,0.6,3.5,0.9c2,4.9,4,9.7,6,14.6c1.4,3.4,2.4,6.3,3.2,9.2
			c0,0,0.1,0,0.1,0c0.2-3.4,0.6-6.4,1.3-10.3c0.6-3.5,1.1-6.9,1.7-10.4c1,0.3,2,0.5,3.1,0.8c-1.3,8.2-2.7,16.5-4,24.7
			c-1.1-0.3-2.2-0.5-3.3-0.8c-2-4.9-4-9.7-6-14.6c-1.3-3.2-2.5-6.4-3.4-9.4c0,0-0.1,0-0.1,0c-0.3,3.2-0.7,6.2-1.4,10.3
			c-0.6,3.5-1.1,7-1.7,10.6C278.2,256.7,277.2,256.4,276.2,256.2z"/>
		<path class="st7" d="M313.9,257.5c-1.3,2.4-2.6,4.8-3.9,7.2c-1.1-0.3-2.2-0.5-3.4-0.8c4.2-7.6,8.3-15.1,12.5-22.7
			c1.3,0.3,2.6,0.6,3.9,0.9c1.5,8.9,3.1,17.9,4.6,26.8c-1.2-0.3-2.3-0.5-3.5-0.8c-0.5-2.8-1-5.6-1.4-8.4
			C319.9,258.9,316.9,258.2,313.9,257.5z M322.6,257c-0.4-2.6-0.9-5.1-1.3-7.7c-0.3-1.8-0.4-3.3-0.6-4.8c0,0-0.1,0-0.1,0
			c-0.6,1.4-1.3,2.8-2,4.2c-1.2,2.2-2.4,4.4-3.6,6.6C317.5,255.8,320,256.4,322.6,257z"/>
		<path class="st7" d="M338.6,245.5c-1.3,8.3-2.7,16.6-4,24.9c-1.1-0.2-2.2-0.5-3.2-0.7c1.3-8.3,2.7-16.6,4-24.9
			C336.5,245.1,337.6,245.3,338.6,245.5z"/>
		<path class="st7" d="M344.2,247.1c1.7,0,4.1,0.3,6.3,0.8c3.5,0.7,5.6,1.8,6.9,3.5c1.1,1.4,1.5,3.2,1.2,5.1c-0.5,3.3-3,5.1-5.7,5.4
			c0,0,0,0.1,0,0.1c1.8,1.1,2.7,3.1,2.9,5.8c0.3,3.6,0.5,6.2,0.8,7.2c-1.1-0.2-2.2-0.4-3.4-0.7c-0.3-0.8-0.5-3-0.7-6.3
			c-0.2-3.6-1.3-5.2-4.3-5.9c-1-0.2-2-0.4-3.1-0.6c-0.6,3.6-1.1,7.2-1.7,10.8c-1.1-0.2-2.2-0.5-3.2-0.7
			C341.6,263.5,342.9,255.3,344.2,247.1z M345.7,259.1c1.1,0.2,2.2,0.5,3.3,0.7c3.5,0.7,6-0.7,6.4-3.6c0.5-3.2-1.6-5.1-5-5.8
			c-1.6-0.3-2.7-0.4-3.3-0.4C346.6,253.1,346.2,256.1,345.7,259.1z"/>
		<path class="st7" d="M364.3,251c1.6,0,3.7,0.2,6.3,0.6c3.2,0.6,5.4,1.7,6.7,3.3c1.2,1.4,1.7,3.4,1.4,5.6c-0.4,2.3-1.3,4-2.8,5
			c-2,1.5-4.9,2-8.1,1.4c-1-0.2-1.9-0.4-2.6-0.7c-0.5,3.3-1.1,6.7-1.6,10c-1.1-0.2-2.2-0.4-3.2-0.6C361.7,267.5,363,259.3,364.3,251
			z M365.6,263.7c0.7,0.3,1.6,0.5,2.6,0.7c3.9,0.7,6.6-0.8,7.1-4.3c0.5-3.3-1.6-5.3-5.1-5.9c-1.4-0.2-2.5-0.3-3.1-0.3
			C366.6,257.2,366.1,260.4,365.6,263.7z"/>
		<path class="st7" d="M403.7,269.2c-1.4,8.7-7.3,12.7-13.8,11.8c-6.6-0.9-10.5-6.8-9.3-14.4c1.3-8,7-12.4,13.7-11.5
			C401.2,256,404.8,261.7,403.7,269.2z M384.1,267.1c-0.8,5.4,1.3,10.6,6.4,11.4c5.1,0.7,8.8-3.7,9.7-9.4c0.8-5-1-10.6-6.4-11.3
			C388.5,257,385,261.6,384.1,267.1z"/>
		<path class="st7" d="M409.8,257.6c1.7-0.2,4.1-0.1,6.3,0c3.5,0.3,5.6,1.1,6.9,2.6c1.1,1.2,1.5,3,1.2,5c-0.5,3.4-3,5.5-5.7,6.2
			c0,0,0,0.1,0,0.1c1.8,0.8,2.7,2.7,2.9,5.4c0.3,3.6,0.5,6.1,0.8,7.1c-1.1-0.1-2.2-0.2-3.4-0.2c-0.3-0.7-0.5-3-0.7-6.2
			c-0.2-3.6-1.3-5-4.3-5.4c-1-0.1-2-0.2-3.1-0.3c-0.6,3.7-1.1,7.3-1.7,11c-1.1-0.1-2.2-0.2-3.2-0.3
			C407.2,274.3,408.5,266,409.8,257.6z M411.2,269.5c1.1,0.1,2.2,0.2,3.3,0.3c3.5,0.3,6-1.5,6.4-4.4c0.5-3.3-1.6-4.9-5-5.2
			c-1.6-0.1-2.7-0.1-3.3,0C412.2,263.3,411.7,266.4,411.2,269.5z"/>
		<path class="st7" d="M434.2,261.8c-2.5-0.1-5.1-0.2-7.6-0.4c0.1-0.9,0.3-1.9,0.4-2.8c6.2,0.4,12.4,0.6,18.6,0.6
			c-0.1,0.9-0.3,1.9-0.4,2.8c-2.6,0-5.1-0.1-7.7-0.2c-1.2,7.6-2.4,15.2-3.5,22.8c-1.1,0-2.2-0.1-3.3-0.1
			C431.8,277,433,269.4,434.2,261.8z"/>
		<path class="st7" d="M444.6,280.9c1.3,0.9,3.3,1.7,5.6,1.7c3.3,0,5.5-1.9,5.9-4.5c0.4-2.4-0.8-3.8-3.9-5.1
			c-3.9-1.5-6.1-3.7-5.5-7.3c0.6-4,4.3-7,9.2-7.1c2.6-0.1,4.3,0.5,5.4,1.1c-0.4,0.9-0.9,1.8-1.3,2.8c-0.7-0.4-2.3-1.1-4.6-1.1
			c-3.4,0.1-5.1,2.2-5.3,3.9c-0.4,2.4,1,3.6,4.2,4.9c4,1.6,5.8,3.6,5.2,7.4c-0.6,4-4,7.6-9.9,7.6c-2.4,0-5-0.7-6.2-1.7
			C443.7,282.8,444.2,281.9,444.6,280.9z"/>
	</g>
</g>
<path class="st4" d="M288.8,132.7l26.4,14.3c0,0,1.4,20.6-0.3,21.3c-1.7,0.7-8.8-2.8-13.6-7.5C296.5,156.1,288.8,132.7,288.8,132.7z
	"/>
</svg>
